<svg>

  <symbol id="svg-social-fb" xmlns="http://www.w3.org/2000/svg" viewBox="0 0 11 20">
    <path d="M8.43 3.32h1.88V.14C10 .1 8.87 0 7.57 0 4.86 0 3 1.66 3 4.7v2.8H0v3.55h3V20h3.67v-8.95h2.87L10 7.5H6.67V5.05c0-1.03.28-1.73 1.76-1.73z"/>
  </symbol>

  <symbol id="svg-social-inst" xmlns="http://www.w3.org/2000/svg" viewBox="0 0 18 18">
    <path d="M8.75 4.5a4.48 4.48 0 1 0-.01 8.97 4.48 4.48 0 0 0 .01-8.96zm0 7.41a2.92 2.92 0 1 1 .01-5.84 2.92 2.92 0 0 1 0 5.84zm5.72-7.59a1.04 1.04 0 1 1-2.1 0 1.05 1.05 0 0 1 2.1 0zm2.98 1.07a5.18 5.18 0 0 0-1.42-3.67A5.21 5.21 0 0 0 12.36.3C10.92.22 6.6.22 5.14.3a5.2 5.2 0 0 0-3.67 1.41C.45 2.74.13 3.98.06 5.38c-.08 1.45-.08 5.78 0 7.23.07 1.4.39 2.64 1.41 3.66a5.22 5.22 0 0 0 3.67 1.42c1.45.08 5.78.08 7.22 0a5.18 5.18 0 0 0 3.67-1.42 5.21 5.21 0 0 0 1.42-3.66c.08-1.45.08-5.78 0-7.22zm-1.87 8.77c-.3.76-.9 1.35-1.67 1.66-1.15.46-3.88.35-5.16.35-1.27 0-4 .1-5.16-.35-.76-.3-1.35-.9-1.66-1.66C1.47 13 1.58 10.27 1.58 9c0-1.28-.1-4.02.35-5.16.3-.77.9-1.36 1.66-1.67 1.16-.46 3.89-.35 5.16-.35 1.28 0 4.02-.1 5.16.35.77.3 1.36.9 1.67 1.67.46 1.15.35 3.88.35 5.16 0 1.27.1 4-.35 5.16z"/>
  </symbol>

  <symbol id="svg-social-vk" xmlns="http://www.w3.org/2000/svg" viewBox="0 0 22 14">
    <path d="M21.29 1.6c.14-.5 0-.85-.7-.85h-2.3c-.58 0-.85.3-1 .65 0 0-1.17 2.86-2.83 4.7-.53.54-.78.72-1.07.72-.14 0-.37-.18-.37-.66V1.6c0-.59-.16-.85-.64-.85H8.75c-.37 0-.59.27-.59.53 0 .55.83.68.92 2.24v3.4c0 .74-.14.87-.43.87-.78 0-2.68-2.86-3.8-6.15-.23-.63-.45-.89-1.04-.89h-2.3c-.66 0-.8.3-.8.65 0 .61.79 3.64 3.64 7.64 1.9 2.73 4.59 4.21 7.02 4.21 1.47 0 1.65-.33 1.65-.9 0-2.6-.14-2.85.6-2.85.34 0 .92.17 2.3 1.49 1.55 1.56 1.81 2.26 2.69 2.26h2.3c.65 0 .99-.33.8-.98-.44-1.36-3.4-4.16-3.53-4.35-.34-.44-.24-.63 0-1.03 0 0 2.81-3.95 3.1-5.3z"/>
  </symbol>

  <symbol id="svg-social-ok" xmlns="http://www.w3.org/2000/svg" viewBox="0 0 13 20">
    <path d="M10.75 13.05a8.6 8.6 0 0 1-3.52 1.05l.82.8 2.98 2.98c1.09 1.12-.69 2.87-1.79 1.79a628.7 628.7 0 0 0-2.98-3l-2.98 3c-1.1 1.07-2.87-.7-1.77-1.8l2.98-2.97.8-.8a8.57 8.57 0 0 1-3.54-1.06c-1.27-.82-1.83-1.3-1.34-2.3.3-.57 1.09-1.05 2.14-.22 0 0 1.41 1.12 3.7 1.12 2.3 0 3.71-1.12 3.71-1.12 1.05-.83 1.84-.35 2.13.22.49 1-.07 1.48-1.34 2.3zM1.18 5.07a5.07 5.07 0 1 1 10.14 0 5.07 5.07 0 0 1-10.14 0zm2.58 0a2.5 2.5 0 1 0 4.99-.01 2.5 2.5 0 0 0-4.99 0z"/>
  </symbol>

  <symbol id="svg-loading" xmlns="http://www.w3.org/2000/svg" viewBox="0 0 70 77">
    <path fill="#FF0E19" stroke="#F2F2F2" stroke-width="6" d="M23.9105 28.9511l2.1627-1.1663c-.007-.2576-.0145-.5137-.0221-.7692l-.0002-.008-.0033-.1238c-.1289-4.7639-.2315-8.5567.2395-11.8547l-2.3766 13.922zm0 0c-.6729-.4053-1.4629-.6437-2.295-.6437H19.908l-.0316.0006c-1.0766.0227-2.2158.4217-3.1036 1.3095-.5268.5268-.9035 1.1608-1.114 1.8486l-1.1806-.0058h-.0148c-1.2112 0-2.3381.498-3.1584 1.3184-.8338.8337-1.3167 1.9653-1.3019 3.1818v.4761l-4.5473 2.4523-.1666.0899-.1541.1101c-.0061.0044-.0112.0079-.0315.022l-.026.018c-.0337.0235-.091.0634-.1545.11a4.5384 4.5384 0 0 0-.5296.4513l2.1213 2.1213-2.1213-2.1213c-.89.89-1.3932 2.0992-1.3932 3.3493v3.2951c-.0149 1.217.4885 2.3356 1.2687 3.1158 1.0938 1.0938 2.7414 1.579 4.3254 1.1063l15.2193-4.3098h2.541c.1682 4.1876.4584 8.1139.8618 11.5306l-7.0091 5.8398a3.471 3.471 0 0 0-.242.2013c-.0806.0732-.1551.1481-.1767.1697l-.0041.0042-.0254.0254-.0248.026c-.8452.8867-1.3497 2.0762-1.391 3.314l-.0017.05V68.9772c-.0141 1.1296.409 2.2597 1.2369 3.1007 1.243 1.2796 3.0759 1.586 4.5893 1.0287l6.8011-2.4184a2.723 2.723 0 0 0 .0167.0178l.0286.0302.0295.0295c.8728.8728 2.0712 1.4773 3.4396 1.5005l.0254.0005h1.3017l.245-.2452c.7809-.2583 1.4552-.7087 2.0022-1.2558l.0295-.0295.0286-.0302a1.4049 1.4049 0 0 0 .0167-.0178l6.7873 2.414c1.5244.5513 3.3194.2431 4.563-1.0006l.0083-.0083c.8005-.8005 1.2864-1.9186 1.2686-3.1263l-.0082-1.5662-.0003-.0439-.0015-.0438c-.042-1.2188-.5399-2.4278-1.4494-3.3372l-.0979-.0978-.0929-.0924-.1006-.0838-7.1239-5.9402c.4032-3.4152.6932-7.34.8571-11.5231h2.5543l15.1867 4.2935a4.3566 4.3566 0 0 0 4.3328-1.0983c.7967-.7966 1.2922-1.9074 1.277-3.1244v-3.3397l-.0005-.0284c-.0236-1.2479-.5435-2.4104-1.4092-3.276l-.0009-.001c-.3062-.3059-.6709-.5862-1.0986-.8076L59.0652 36.42v-.4994c0-1.1369-.4373-2.2941-1.3018-3.1585-.8468-.8469-1.9606-1.2855-3.0863-1.3094l-.0467-.001-.0466.0004-1.1711.0115a4.5358 4.5358 0 0 0-1.1171-1.8461c-.8464-.8465-1.9602-1.2858-3.0871-1.3095l-.0316-.0006h-1.7075c-.8002 0-1.5976.2194-2.293.632l-2.1475-1.1581c.0067-.2721.0136-.5421.0216-.8173l.0002-.0058.0034-.1255c.1287-4.7277.2315-8.5076-.2489-11.8018-.567-3.9807-1.9715-7.9272-4.2331-10.1887-.7778-.7778-1.7331-1.4168-2.8717-1.6946a4.2305 4.2305 0 0 0-1.2196-.1461 4.3382 4.3382 0 0 0-.9992.1296c-1.246.2698-2.2161.9584-2.9689 1.7112-2.2549 2.255-3.6592 6.2051-4.2255 10.1858l-2.3767 13.923z"/>
  </symbol>

  <symbol id="svg-ico-mail" xmlns="http://www.w3.org/2000/svg" viewBox="0 0 19 14">
    <path d="M18.31 4.62c.15-.11.36 0 .36.17v7.46c0 .97-.79 1.75-1.75 1.75H1.75C.78 14 0 13.22 0 12.25V4.8c0-.18.2-.29.35-.17.82.63 1.9 1.44 5.62 4.14.77.56 2.07 1.74 3.36 1.73 1.3.01 2.63-1.2 3.37-1.73 3.72-2.7 4.8-3.51 5.61-4.15zM9.33 9.33c.85.02 2.07-1.06 2.68-1.5 4.84-3.52 5.2-3.82 6.32-4.7a.87.87 0 0 0 .34-.69v-.69c0-.97-.79-1.75-1.75-1.75H1.75C.78 0 0 .78 0 1.75v.7c0 .26.12.51.34.68 1.11.87 1.48 1.18 6.32 4.7.61.44 1.83 1.52 2.67 1.5z"/>
  </symbol>

  <symbol id="svg-ico-people" xmlns="http://www.w3.org/2000/svg" viewBox="0 0 20 14">
    <path d="M6 7a3.5 3.5 0 1 0 0-7 3.5 3.5 0 0 0 0 7zm2.4 1h-.26a4.92 4.92 0 0 1-4.28 0H3.6A3.6 3.6 0 0 0 0 11.6v.9c0 .83.67 1.5 1.5 1.5h9c.83 0 1.5-.67 1.5-1.5v-.9A3.6 3.6 0 0 0 8.4 8zM15 7a3 3 0 1 0 0-6 3 3 0 0 0 0 6zm1.5 1h-.12c-.43.15-.9.25-1.38.25-.49 0-.95-.1-1.38-.25h-.12c-.64 0-1.22.18-1.74.48A4.57 4.57 0 0 1 13 11.6v1.2l-.02.2h5.52c.83 0 1.5-.67 1.5-1.5A3.5 3.5 0 0 0 16.5 8z"/>
  </symbol>

  <symbol id="svg-ico-hotel" xmlns="http://www.w3.org/2000/svg" viewBox="0 0 18 16">
    <path d="M17.5 2c.3 0 .5-.2.5-.5v-1c0-.3-.2-.5-.5-.5H.5C.2 0 0 .2 0 .5v1c0 .3.2.5.5.5H1v12H.5c-.3 0-.5.2-.5.5v1c0 .3.2.5.5.5H8v-2.5c0-.3.2-.5.5-.5h1c.3 0 .5.2.5.5V16h7.5c.3 0 .5-.2.5-.5v-1c0-.3-.2-.5-.5-.5H17V2h.5zM8 3.4c0-.2.2-.4.4-.4h1.2c.2 0 .4.2.4.4v1.2c0 .2-.2.4-.4.4H8.4a.4.4 0 0 1-.4-.4V3.4zm0 3c0-.2.2-.4.4-.4h1.2c.2 0 .4.2.4.4v1.2c0 .2-.2.4-.4.4H8.4a.4.4 0 0 1-.4-.4V6.4zm-4-3c0-.2.2-.4.4-.4h1.2c.2 0 .4.2.4.4v1.2c0 .2-.2.4-.4.4H4.4a.4.4 0 0 1-.4-.4V3.4zM5.6 8H4.4a.4.4 0 0 1-.4-.4V6.4c0-.2.2-.4.4-.4h1.2c.2 0 .4.2.4.4v1.2c0 .2-.2.4-.4.4zm.4 4a3 3 0 1 1 6 0H6zm8-4.4c0 .2-.2.4-.4.4h-1.2a.4.4 0 0 1-.4-.4V6.4c0-.2.2-.4.4-.4h1.2c.2 0 .4.2.4.4v1.2zm0-3c0 .2-.2.4-.4.4h-1.2a.4.4 0 0 1-.4-.4V3.4c0-.2.2-.4.4-.4h1.2c.2 0 .4.2.4.4v1.2z"/>
  </symbol>

  <symbol id="svg-ico-kitchen" xmlns="http://www.w3.org/2000/svg" viewBox="0 0 13 16">
    <path d="M6.5.48c.02.14.5 2.95.5 4.02 0 1.63-.87 2.8-2.15 3.27l.4 7.44c.02.43-.32.79-.75.79h-2a.75.75 0 0 1-.75-.8l.4-7.43C.87 7.3 0 6.13 0 4.5 0 3.43.48.62.5.48.6-.16 1.92-.17 2 .5v4.41c.04.1.47.1.5 0L2.75.5c.1-.65 1.4-.65 1.5 0l.25 4.43c.03.1.46.1.5 0V.51c.08-.68 1.4-.67 1.5-.03zm3.72 8.92l-.47 5.79c-.03.44.31.81.75.81h1.75c.42 0 .75-.33.75-.75V.75a.75.75 0 0 0-.75-.75c-2.58 0-6.92 5.58-2.03 9.4z"/>
  </symbol>

  <symbol id="svg-ico-calendar" xmlns="http://www.w3.org/2000/svg" viewBox="0 0 14 16">
    <path d="M0 14.5c0 .8.7 1.5 1.5 1.5h11c.8 0 1.5-.7 1.5-1.5V6H0v8.5zm10-6.1c0-.2.2-.4.4-.4h1.2c.2 0 .4.2.4.4v1.2c0 .2-.2.4-.4.4h-1.2a.4.4 0 0 1-.4-.4V8.4zm0 4c0-.2.2-.4.4-.4h1.2c.2 0 .4.2.4.4v1.2c0 .2-.2.4-.4.4h-1.2a.4.4 0 0 1-.4-.4v-1.2zm-4-4c0-.2.2-.4.4-.4h1.2c.2 0 .4.2.4.4v1.2c0 .2-.2.4-.4.4H6.4a.4.4 0 0 1-.4-.4V8.4zm0 4c0-.2.2-.4.4-.4h1.2c.2 0 .4.2.4.4v1.2c0 .2-.2.4-.4.4H6.4a.4.4 0 0 1-.4-.4v-1.2zm-4-4c0-.2.2-.4.4-.4h1.2c.2 0 .4.2.4.4v1.2c0 .2-.2.4-.4.4H2.4a.4.4 0 0 1-.4-.4V8.4zm0 4c0-.2.2-.4.4-.4h1.2c.2 0 .4.2.4.4v1.2c0 .2-.2.4-.4.4H2.4a.4.4 0 0 1-.4-.4v-1.2zM12.5 2H11V.5c0-.3-.2-.5-.5-.5h-1c-.3 0-.5.2-.5.5V2H5V.5c0-.3-.2-.5-.5-.5h-1c-.3 0-.5.2-.5.5V2H1.5C.7 2 0 2.7 0 3.5V5h14V3.5c0-.8-.7-1.5-1.5-1.5z"/>
  </symbol>

  <symbol id="svg-ico-plain" xmlns="http://www.w3.org/2000/svg" viewBox="0 0 18 16">
    <path d="M15 6h-3.57L8.14.25A.5.5 0 0 0 7.71 0H5.66a.5.5 0 0 0-.48.64L6.72 6H3.5L2.15 4.2a.5.5 0 0 0-.4-.2H.5a.5.5 0 0 0-.48.62L1 8l-.98 3.38A.5.5 0 0 0 .5 12h1.25a.5.5 0 0 0 .4-.2L3.5 10h3.22l-1.54 5.36a.5.5 0 0 0 .48.64h2.05a.5.5 0 0 0 .43-.25L11.43 10H15c1.1 0 3-.9 3-2s-1.9-2-3-2z"/>
  </symbol>

  <symbol id="svg-ico-info" xmlns="http://www.w3.org/2000/svg" viewBox="0 0 56 56">
    <circle cx="28" cy="28" r="28" fill="#FF0E19"/>
    <path fill="#FFCB00" d="M23.25 39.17h1.25v-9.6h-1.25c-.69 0-1.25-.59-1.25-1.32v-3.17c0-.74.56-1.33 1.25-1.33h7c.69 0 1.25.6 1.25 1.33v14.1h1.25c.69 0 1.25.59 1.25 1.32v3.17c0 .74-.56 1.33-1.25 1.33h-9.5c-.69 0-1.25-.6-1.25-1.33V40.5c0-.73.56-1.33 1.25-1.33zM28 11c-2.49 0-4.5 2.14-4.5 4.78s2.01 4.78 4.5 4.78 4.5-2.14 4.5-4.78S30.49 11 28 11z"/>
  </symbol>

  <symbol id="svg-ico-doc" xmlns="http://www.w3.org/2000/svg" viewBox="0 0 14 14">
    <path d="M12.25 5.25V2.11c0-.23-.1-.45-.26-.62L10.76.26a.88.88 0 0 0-.62-.26H2.62c-.48 0-.87.4-.87.88v4.37C.78 5.25 0 6.03 0 7v3.06c0 .24.2.44.44.44h1.31v2.63c0 .48.4.87.88.87h8.75c.48 0 .87-.4.87-.88V10.5h1.31c.24 0 .44-.2.44-.44V7c0-.97-.78-1.75-1.75-1.75zm-1.75 7h-7V9.62h7v2.63zm0-6.13h-7V1.75h5.25v1.31c0 .24.2.44.44.44h1.31v2.63zm1.31 1.97a.66.66 0 1 1 0-1.3.66.66 0 0 1 0 1.3z"/>
  </symbol>

  <symbol id="svg-ico-map" xmlns="http://www.w3.org/2000/svg" viewBox="0 0 16 14">
    <path d="M7.88 0a3.45 3.45 0 0 0-3.45 3.45c0 1.53 2.25 4.34 3.11 5.36.18.2.5.2.67 0 .86-1.02 3.11-3.83 3.11-5.36C11.32 1.55 9.78 0 7.87 0zm0 4.6a1.15 1.15 0 1 1 0-2.3 1.15 1.15 0 0 1 0 2.3zM.54 5.9a.88.88 0 0 0-.55.82v6.84c0 .31.31.52.6.4l3.78-1.71V5.88a8.28 8.28 0 0 1-.59-1.27L.55 5.9zm7.33 3.93a1.3 1.3 0 0 1-1-.46c-.54-.63-1.11-1.36-1.63-2.1v4.98L10.5 14V7.27c-.52.74-1.09 1.47-1.63 2.1-.25.3-.61.46-1 .46zm7.27-5.42l-3.78 1.71V14l3.83-1.53a.87.87 0 0 0 .55-.81V4.8a.44.44 0 0 0-.6-.4z"/>
  </symbol>

  <symbol id="svg-ico-time" xmlns="http://www.w3.org/2000/svg" viewBox="0 0 14 14">
    <path d="M7 0a7 7 0 1 0 0 14A7 7 0 0 0 7 0zm0 12.65a5.64 5.64 0 1 1 0-11.3 5.64 5.64 0 0 1 0 11.3zM8.74 9.7l-2.4-1.74a.34.34 0 0 1-.13-.28V3.05c0-.19.15-.34.34-.34h.9c.19 0 .34.15.34.34v4l1.89 1.37c.15.11.18.32.07.47l-.53.73a.34.34 0 0 1-.48.08z"/>
  </symbol>

  <symbol id="svg-ico-place" xmlns="http://www.w3.org/2000/svg" viewBox="0 0 14 18">
    <path d="M6.06 17.64C.95 10.24 0 9.47 0 6.75a6.75 6.75 0 1 1 13.5 0c0 2.72-.95 3.48-6.06 10.89a.84.84 0 0 1-1.38 0zm.69-8.08a2.81 2.81 0 1 0 0-5.62 2.81 2.81 0 0 0 0 5.62z"/>
  </symbol>

  <symbol id="svg-ico-list" xmlns="http://www.w3.org/2000/svg" viewBox="0 0 18 16">
    <path d="M3.38 2.38a1.69 1.69 0 1 1-3.38 0 1.69 1.69 0 0 1 3.38 0zM1.68 6.3a1.69 1.69 0 1 0 0 3.38 1.69 1.69 0 0 0 0-3.38zm0 5.63a1.69 1.69 0 1 0 0 3.37 1.69 1.69 0 0 0 0-3.37zm3.38-8.3h12.38c.3 0 .56-.25.56-.56v-1.4a.56.56 0 0 0-.56-.57H5.06a.56.56 0 0 0-.56.56v1.4c0 .32.25.57.56.57zm0 5.63h12.38c.3 0 .56-.26.56-.57V7.3a.56.56 0 0 0-.56-.57H5.06a.56.56 0 0 0-.56.57v1.4c0 .31.25.57.56.57zm0 5.62h12.38c.3 0 .56-.25.56-.56v-1.4a.56.56 0 0 0-.56-.57H5.06a.56.56 0 0 0-.56.56v1.4c0 .32.25.57.56.57z"/>
  </symbol>

  <symbol id="svg-ico-search" xmlns="http://www.w3.org/2000/svg" viewBox="0 0 18 18">
    <path d="M17.75 15.56l-3.5-3.5a.84.84 0 0 0-.6-.25h-.57a7.31 7.31 0 1 0-1.27 1.27v.57c0 .23.09.44.25.6l3.5 3.5c.33.33.87.33 1.2 0l.99-1a.85.85 0 0 0 0-1.19zM7.31 11.81a4.5 4.5 0 1 1 0-9 4.5 4.5 0 0 1 0 9z"/>
  </symbol>

  <symbol id="svg-ico-arrow" xmlns="http://www.w3.org/2000/svg" viewBox="0 0 14 24">
    <path stroke-linecap="round" stroke-linejoin="round" stroke-width="4" d="M2 2l10 10L2 22"/>
  </symbol>

  <symbol id="svg-ico-arrow-small" xmlns="http://www.w3.org/2000/svg" viewBox="0 0 13 8">
    <path d="M5.54 7.73L.27 2.46a.93.93 0 0 1 0-1.31l.88-.88a.93.93 0 0 1 1.31 0L6.2 4.01 9.93.27a.93.93 0 0 1 1.3 0l.88.88c.37.36.37.95 0 1.31L6.85 7.73a.92.92 0 0 1-1.31 0z"/>
  </symbol>

  <symbol id="svg-ico-star" xmlns="http://www.w3.org/2000/svg" viewBox="0 0 14 12">
    <path d="M6.08.42l-1.53 3.1-3.43.5A.75.75 0 0 0 .71 5.3L3.18 7.7l-.58 3.41a.75.75 0 0 0 1.09.8l3.06-1.62 3.06 1.61a.75.75 0 0 0 1.09-.79l-.59-3.4L12.8 5.3a.75.75 0 0 0-.41-1.28l-3.43-.5L7.42.42a.75.75 0 0 0-1.34 0z"/>
  </symbol>

  <symbol id="svg-ico-star2" xmlns="http://www.w3.org/2000/svg" viewBox="0 0 20 19">
    <path d="M10 0l2 7h8l-6 4 2 7-6-4-6 4 2-7-6-4h8l2-7z"/>
  </symbol>

  <symbol id="svg-ico-filter" xmlns="http://www.w3.org/2000/svg" viewBox="0 0 16 14">
    <path d="M15.5 11H5v-.5a.5.5 0 0 0-.5-.5h-1a.5.5 0 0 0-.5.5v.5H.5a.5.5 0 0 0-.5.5v1c0 .28.23.5.5.5H3v.5c0 .28.23.5.5.5h1a.5.5 0 0 0 .5-.5V13h10.5a.5.5 0 0 0 .5-.5v-1a.5.5 0 0 0-.5-.5zm0-5H13v-.5a.5.5 0 0 0-.5-.5h-1a.5.5 0 0 0-.5.5V6H.5a.5.5 0 0 0-.5.5v1c0 .28.23.5.5.5H11v.5c0 .28.22.5.5.5h1a.5.5 0 0 0 .5-.5V8h2.5a.5.5 0 0 0 .5-.5v-1a.5.5 0 0 0-.5-.5zm0-5H9V.5a.5.5 0 0 0-.5-.5h-1a.5.5 0 0 0-.5.5V1H.5a.5.5 0 0 0-.5.5v1c0 .27.23.5.5.5H7v.5c0 .27.22.5.5.5h1a.5.5 0 0 0 .5-.5V3h6.5a.5.5 0 0 0 .5-.5v-1a.5.5 0 0 0-.5-.5z"/>
  </symbol>

  <symbol id="svg-ico-rating-star" xmlns="http://www.w3.org/2000/svg" viewBox="0 0 17 16">
    <path d="M7.46.56L5.42 4.69l-4.56.67a1 1 0 0 0-.56 1.7l3.3 3.22-.78 4.55a1 1 0 0 0 1.45 1.05l4.09-2.14 4.08 2.14a1 1 0 0 0 1.45-1.05l-.78-4.55 3.3-3.21a1 1 0 0 0-.55-1.71l-4.56-.67L9.26.56a1 1 0 0 0-1.8 0z"/>
  </symbol>

  <symbol id="svg-ico-feauture-wifi" xmlns="http://www.w3.org/2000/svg" viewBox="0 0 30 22">
    <path d="M29.76 6.32a21.67 21.67 0 0 0-29.52 0A.76.76 0 0 0 .22 7.4l1.6 1.61c.3.29.76.3 1.06.02a17.88 17.88 0 0 1 24.24 0c.3.27.77.27 1.05-.02l1.6-1.6c.31-.3.3-.8 0-1.1zM15 15.63c-1.66 0-3 1.36-3 3.03a3.01 3.01 0 0 0 3 3.02c1.66 0 3-1.35 3-3.02a3.01 3.01 0 0 0-3-3.03zm9.5-3.95a14.3 14.3 0 0 0-19 0 .75.75 0 0 0-.03 1.1l1.62 1.6c.28.28.73.3 1.03.04a10.5 10.5 0 0 1 13.76 0c.3.26.75.24 1.03-.04l1.62-1.6c.3-.3.3-.8-.03-1.1z"/>
  </symbol>

  <symbol id="svg-ico-feauture-service" xmlns="http://www.w3.org/2000/svg" viewBox="0 0 18 24">
    <path d="M15.75 7.5H2.25C1.01 7.5 0 8.5 0 9.75v10.5c0 1.24 1 2.25 2.25 2.25H3v.75c0 .41.34.75.75.75h1.5c.41 0 .75-.34.75-.75v-.75h6v.75c0 .41.34.75.75.75h1.5c.41 0 .75-.34.75-.75v-.75h.75c1.24 0 2.25-1 2.25-2.25V9.75c0-1.24-1-2.25-2.25-2.25zM15 17.63c0 .2-.17.37-.38.37H3.38a.37.37 0 0 1-.38-.38v-.75c0-.2.17-.37.38-.37h11.25c.2 0 .37.17.37.38v.75zm0-4.5c0 .2-.17.37-.38.37H3.38a.37.37 0 0 1-.38-.38v-.74c0-.21.17-.38.38-.38h11.25c.2 0 .37.17.37.38v.74zM6.75 2.24h4.5V6h2.25V2.25c0-1.24-1-2.25-2.25-2.25h-4.5C5.51 0 4.5 1 4.5 2.25V6h2.25V2.25z"/>
  </symbol>

  <symbol id="svg-ico-feauture-parking" xmlns="http://www.w3.org/2000/svg" viewBox="0 0 21 22">
    <path d="M18.75.5H2.25C1.01.5 0 1.5 0 2.75v16.5c0 1.24 1 2.25 2.25 2.25h16.5c1.24 0 2.25-1 2.25-2.25V2.75C21 1.51 20 .5 18.75.5zM11.25 14H9v2.25c0 .41-.34.75-.75.75h-1.5a.75.75 0 0 1-.75-.75V5.75c0-.41.34-.75.75-.75h4.5a4.5 4.5 0 0 1 0 9zm0-6H9v3h2.25c.82 0 1.5-.68 1.5-1.5S12.07 8 11.25 8z"/>
  </symbol>

  <symbol id="svg-ico-feauture-sport" xmlns="http://www.w3.org/2000/svg" viewBox="0 0 24 24">
    <path d="M10.47 11.4c-.04-1.72-.4-3.4-1.07-4.95A15.28 15.28 0 0 0 .95 16.62a11.67 11.67 0 0 0 2.67 3.8 15.65 15.65 0 0 1 6.85-9.01zM8.74 5.1a13.32 13.32 0 0 0-2.7-3.3A11.6 11.6 0 0 0 .2 14.09 16.97 16.97 0 0 1 8.74 5.1zm8.8 7.75A15.3 15.3 0 0 0 12.95.45c-.69-.07-2.42-.25-4.63.4A15.65 15.65 0 0 1 12.7 11.3c1.52.83 3.15 1.36 4.82 1.56zm-5.85.44c-1.49.9-2.76 2.06-3.76 3.4a15.28 15.28 0 0 0 13 2.25c.93-1.24 1.6-2.66 1.98-4.22-1.24.31-2.51.5-3.79.5-2.56-.01-5.1-.67-7.43-1.93zm-4.61 4.68a13.33 13.33 0 0 0-1.5 3.94 11.56 11.56 0 0 0 13.54-1.03 16.9 16.9 0 0 1-12.04-2.91zm8.45-16.9c2.6 3.3 3.87 7.55 3.5 11.88 1.42.01 2.83-.22 4.2-.66l.02-.29c0-5.05-3.22-9.33-7.72-10.94z"/>
  </symbol>

  <symbol id="svg-ico-feauture-map" xmlns="http://www.w3.org/2000/svg" viewBox="0 0 27 24">
    <path d="M13.5 0a5.9 5.9 0 0 0-5.9 5.9c0 2.64 3.85 7.45 5.33 9.2.3.35.84.35 1.14 0 1.48-1.75 5.34-6.56 5.34-9.2A5.9 5.9 0 0 0 13.5 0zM.94 10.12a1.5 1.5 0 0 0-.94 1.4v11.73c0 .53.54.9 1.03.7L7.5 21V10.07a14.2 14.2 0 0 1-1-2.17L.94 10.12zm12.56 6.74c-.66 0-1.28-.29-1.71-.8A49.5 49.5 0 0 1 9 12.46V21l9 3V12.47a49.5 49.5 0 0 1-2.79 3.6c-.43.5-1.05.79-1.71.79zm12.47-9.3L19.5 10.5V24l6.56-2.62a1.5 1.5 0 0 0 .94-1.4V8.25c0-.53-.54-.9-1.03-.7z"/>
  </symbol>

  <symbol id="svg-ico-feauture-comfort" xmlns="http://www.w3.org/2000/svg" viewBox="0 0 21 24">
    <path d="M5.25 6c0-1.38.76-2.58 1.88-3.23V12h2.25V2.25h2.25V12h2.25V2.77A3.74 3.74 0 0 1 15.75 6v6H18V6a6 6 0 0 0-6-6H9a6 6 0 0 0-6 6v6h2.25V6zm15.67 10.03l-.5-1.5a1.5 1.5 0 0 0-1.43-1.03H2a1.5 1.5 0 0 0-1.42 1.03l-.5 1.5A1.5 1.5 0 0 0 1.5 18v5.25c0 .41.34.75.75.75h1.5c.41 0 .75-.34.75-.75V18h12v5.25c0 .41.34.75.75.75h1.5c.41 0 .75-.34.75-.75V18c1.02 0 1.74-1 1.42-1.97z"/>
  </symbol>

  <symbol id="svg-ico-feauture-key" xmlns="http://www.w3.org/2000/svg" viewBox="0 0 24 24">
    <path d="M24 8.25a8.25 8.25 0 0 1-9.79 8.1l-1.12 1.27a1.13 1.13 0 0 1-.85.38H10.5v1.88c0 .62-.5 1.12-1.13 1.12H7.5v1.88C7.5 23.5 7 24 6.37 24H1.13C.5 24 0 23.5 0 22.87v-3.65c0-.3.12-.59.33-.8l7.58-7.58A8.24 8.24 0 1 1 24 8.25zM15.75 6a2.25 2.25 0 1 0 4.5 0 2.25 2.25 0 0 0-4.5 0z"/>
  </symbol>

  <symbol id="svg-ico-feauture-kitchen" xmlns="http://www.w3.org/2000/svg" viewBox="0 0 20 24">
    <path d="M9.75.71c.03.22.75 4.43.75 6.04 0 2.45-1.3 4.2-3.23 4.9l.6 11.16c.04.65-.47 1.19-1.12 1.19h-3c-.64 0-1.16-.54-1.13-1.19l.61-11.16C1.3 10.95 0 9.2 0 6.75 0 5.14.72.93.75.71.9-.24 2.88-.25 3 .76v6.62c.06.16.7.15.75 0L4.13.74c.15-.98 2.09-.98 2.24 0l.38 6.64c.04.15.69.16.75 0V.76c.12-1 2.1-1 2.25-.05zm5.58 13.4l-.7 8.67c-.06.66.46 1.22 1.12 1.22h2.63c.62 0 1.12-.5 1.12-1.12V1.13C19.5.5 19 0 18.37 0 14.52 0 8 8.37 15.34 14.1z"/>
  </symbol>

  <symbol id="svg-ico-feauture-transport" xmlns="http://www.w3.org/2000/svg" viewBox="0 0 24 24">
    <path d="M22.88 6h-.38V3.75C22.5 1.65 17.85 0 12 0S1.5 1.65 1.5 3.75V6h-.38C.5 6 0 6.5 0 7.13v3.75C0 11.5.5 12 1.13 12h.37v7.5c0 .83.67 1.5 1.5 1.5v1.5c0 .83.67 1.5 1.5 1.5H6c.83 0 1.5-.67 1.5-1.5V21h9v1.5c0 .83.67 1.5 1.5 1.5h1.5c.83 0 1.5-.67 1.5-1.5V21h.3c.75 0 1.2-.6 1.2-1.2V12h.38c.62 0 1.12-.5 1.12-1.13V7.13C24 6.5 23.5 6 22.87 6zM5.25 18.75a1.5 1.5 0 1 1 0-3 1.5 1.5 0 0 1 0 3zM6 13.5A1.5 1.5 0 0 1 4.5 12V6c0-.83.67-1.5 1.5-1.5h12c.83 0 1.5.67 1.5 1.5v6c0 .83-.67 1.5-1.5 1.5H6zm12.75 5.25a1.5 1.5 0 1 1 0-3 1.5 1.5 0 0 1 0 3z"/>
  </symbol>

  <symbol id="svg-ico-feauture-cloth" xmlns="http://www.w3.org/2000/svg" viewBox="0 0 30 24">
    <path d="M29.59 4.52L20.46 0c-.94 1.3-3.03 2.21-5.46 2.21S10.48 1.31 9.54 0L.4 4.52a.76.76 0 0 0-.34 1.01l2.69 5.37c.18.37.63.52 1 .34l2.66-1.3a.75.75 0 0 1 1.08.67V22.5c0 .83.67 1.5 1.5 1.5h12c.82 0 1.5-.67 1.5-1.5V10.6c0-.55.58-.91 1.07-.67l2.66 1.3c.37.19.82.04 1-.34l2.69-5.36a.75.75 0 0 0-.33-1z"/>
  </symbol>

  <symbol id="svg-ico-feauture-bar" xmlns="http://www.w3.org/2000/svg" viewBox="0 0 27 24">
    <path d="M13.88 21.75h-2.63v-5.87l7.91-7.9c.73-.74.21-1.98-.82-1.98H1.16a1.15 1.15 0 0 0-.82 1.97l7.91 7.91v5.87H5.63c-1.04 0-1.88.84-1.88 1.88 0 .2.17.37.38.37h11.25c.2 0 .37-.17.37-.38 0-1.03-.84-1.87-1.87-1.87zM20.25 0a6.73 6.73 0 0 0-6.34 4.5h2.47a4.49 4.49 0 0 1 8.37 2.25 4.5 4.5 0 0 1-6.34 4.1l-1.66 1.65A6.75 6.75 0 1 0 20.25 0z"/>
  </symbol>

  <symbol id="svg-ico-feauture-relax" xmlns="http://www.w3.org/2000/svg" viewBox="0 0 30 16">
    <path d="M8.89 10.56c.16.15.71.44 1.61.44.9 0 1.45-.29 1.61-.44a3.7 3.7 0 0 1 2.5-1.06h.77c.9 0 1.76.37 2.5 1.06.17.15.72.44 1.62.44.9 0 1.45-.29 1.61-.44.7-.64 1.5-1 2.32-1.04l-5.3-3.78.85-.6a.76.76 0 0 1 .6-.12l4.7 1a2.25 2.25 0 0 0 .94-4.4l-4.7-1c-1.44-.31-2.96 0-4.16.86l-3.75 2.68c-.48.34-.9.77-1.25 1.26l-3.22 4.6c.26.15.51.32.75.54zm20.36 1.94h-.75c-1.22 0-2.15-.4-2.63-.84a2.22 2.22 0 0 0-1.49-.66h-.76c-.57 0-1.07.28-1.5.66-.47.45-1.4.84-2.62.84-1.22 0-2.15-.4-2.63-.84a2.22 2.22 0 0 0-1.49-.66h-.76c-.57 0-1.07.28-1.5.66-.47.45-1.4.84-2.62.84-1.22 0-2.15-.4-2.63-.84A2.22 2.22 0 0 0 6.38 11h-.76c-.57 0-1.07.28-1.5.66-.47.45-1.4.84-2.62.84H.75a.75.75 0 0 0-.75.75v1.5c0 .41.34.75.75.75h.75c1.81 0 3.4-.57 4.5-1.5 1.1.93 2.69 1.5 4.5 1.5s3.4-.57 4.5-1.5c1.1.93 2.69 1.5 4.5 1.5s3.4-.57 4.5-1.5c1.1.93 2.69 1.5 4.5 1.5h.75c.41 0 .75-.34.75-.75v-1.5a.75.75 0 0 0-.75-.75zM5.25 8a3.75 3.75 0 1 0 0-7.5 3.75 3.75 0 0 0 0 7.5z"/>
  </symbol>

  <symbol id="svg-ico-feauture-health" xmlns="http://www.w3.org/2000/svg" viewBox="0 0 21 22">
    <path d="M13.03 11l7.8-7.8a.56.56 0 0 0 0-.8 3.94 3.94 0 0 0-5.56 0L9.85 7.82 8.7 6.65a4.5 4.5 0 1 0-3.56 2.8L6.67 11l-1.54 1.54a4.5 4.5 0 1 0 3.56 2.8l1.16-1.16 5.42 5.42a3.94 3.94 0 0 0 5.57 0 .56.56 0 0 0 0-.8l-7.8-7.8zM4.5 6.5a1.5 1.5 0 1 1 0-3 1.5 1.5 0 0 1 0 3zm0 12a1.5 1.5 0 1 1 0-3 1.5 1.5 0 0 1 0 3z"/>
  </symbol>

  <symbol id="svg-ico-feauture-beach" xmlns="http://www.w3.org/2000/svg" viewBox="0 0 30 24">
    <path d="M5.4 6.42l4.8 1.74C11.83 4.34 14.23 1.4 16.7.02A14.03 14.03 0 0 0 5.06 5.26c-.31.4-.12.99.35 1.16zm6.2 2.25l11.19 4.07c1.67-5.68.87-10.85-2-11.9-.35-.13-.71-.19-1.08-.19-2.72 0-6.02 3.24-8.1 8.02zm12.84-5.83c.3.76.51 1.62.62 2.58a20.1 20.1 0 0 1-.89 7.83L29 15c.47.17 1-.16 1-.66.12-4.49-1.96-8.79-5.55-11.5zM26.25 21h-11.2l3.04-8.37-2.82-1.02L11.86 21H.75a.75.75 0 0 0-.75.75v1.5c0 .41.34.75.75.75h25.5c.41 0 .75-.34.75-.75v-1.5a.75.75 0 0 0-.75-.75z"/>
  </symbol>

  <symbol id="svg-ico-feauture-manager" xmlns="http://www.w3.org/2000/svg" viewBox="0 0 24 24">
    <path d="M11.6.4a11.6 11.6 0 1 0 0 23.2 11.6 11.6 0 0 0 0-23.2zm0 4.5a4.1 4.1 0 1 1 0 8.2 4.1 4.1 0 0 1 0-8.2zm0 16.1a9 9 0 0 1-6.8-3.2A5.2 5.2 0 0 1 9.4 15h.3c.6.2 1.3.4 2 .4l1.8-.3.4-.1c2 0 3.7 1.1 4.6 2.8a9 9 0 0 1-6.9 3.2z"/>
  </symbol>

  <symbol id="svg-ico-feauture-hot" xmlns="http://www.w3.org/2000/svg" viewBox="0 0 21 24">
    <path d="M19.4 7.6C16 1.4 5.7 0 5.7 0s4.7 5.2-1.3 9.3C.5 11.8-1 15.3.7 18.9c1.2 2.8 3.9 4 6.7 4.4-1.3-2.6-.3-5.8-.2-6.1 2.7 4 7.8 0 5.2-4.4 3.4.7 3.9 6.5 1.3 10 3.8-1.1 6.3-4 7-6.8.7-2.7.2-6-1.3-8.4z"/>
  </symbol>

  <symbol id="svg-ico-feauture-price" xmlns="http://www.w3.org/2000/svg" viewBox="0 0 18 22">
    <path d="M11.22 14C15.21 14 18 11.21 18 7.2c0-4-2.79-6.7-6.78-6.7H3.56a.56.56 0 0 0-.56.56v9.69H.56a.56.56 0 0 0-.56.56v2.13c0 .3.25.56.56.56H3v1.5H.56a.56.56 0 0 0-.56.56v1.88c0 .3.25.56.56.56H3v2.44c0 .3.25.56.56.56h2.75c.3 0 .56-.25.56-.56V18.5h7.57c.3 0 .56-.25.56-.56v-1.88a.56.56 0 0 0-.56-.56H6.87V14h4.35zM6.87 3.72h3.69c2.19 0 3.51 1.37 3.51 3.49 0 2.14-1.32 3.54-3.57 3.54H6.87V3.72z"/>
  </symbol>

  <symbol id="svg-ico-feauture-online" xmlns="http://www.w3.org/2000/svg" viewBox="0 0 27 22">
    <path d="M24.75.5H2.25C1.01.5 0 1.5 0 2.75v16.5c0 1.24 1 2.25 2.25 2.25h22.5c1.24 0 2.25-1 2.25-2.25V2.75C27 1.51 26 .5 24.75.5zM2.54 2.75h21.92c.16 0 .29.13.29.28V5H2.25V3.03c0-.15.13-.28.29-.28zm21.92 16.5H2.54a.28.28 0 0 1-.29-.28V11h22.5v7.97c0 .15-.13.28-.29.28zM9 14.56v1.88c0 .3-.25.56-.56.56H5.06a.56.56 0 0 1-.56-.56v-1.88c0-.3.25-.56.56-.56h3.38c.3 0 .56.25.56.56zm9 0v1.88c0 .3-.25.56-.56.56h-6.38a.56.56 0 0 1-.56-.56v-1.88c0-.3.25-.56.56-.56h6.38c.3 0 .56.25.56.56z"/>
  </symbol>

  <symbol id="svg-ico-feauture-chat" xmlns="http://www.w3.org/2000/svg" viewBox="0 0 24 22">
    <path d="M12 .5C5.37.5 0 4.86 0 10.25c0 2.32 1 4.45 2.67 6.13A11.92 11.92 0 0 1 .1 20.87c-.1.1-.13.26-.07.4.06.15.2.23.34.23 3.11 0 5.44-1.5 6.6-2.4 1.53.57 3.23.9 5.03.9 6.63 0 12-4.36 12-9.75S18.63.5 12 .5zM6 11.75a1.5 1.5 0 1 1 0-3 1.5 1.5 0 0 1 0 3zm6 0a1.5 1.5 0 1 1 0-3 1.5 1.5 0 0 1 0 3zm6 0a1.5 1.5 0 1 1 0-3 1.5 1.5 0 0 1 0 3z"/>
  </symbol>

  <symbol id="svg-ico-feauture-mail" xmlns="http://www.w3.org/2000/svg" viewBox="0 0 24 24">
    <path d="M24 21.75A2.25 2.25 0 0 1 21.75 24H2.25A2.25 2.25 0 0 1 0 21.75V9.409a2.25 2.25 0 0 1 .862-1.771C2.03 6.723 2.995 5.98 8.559 1.942 9.347 1.367 10.912-.017 12 0c1.087-.017 2.653 1.367 3.441 1.942 5.564 4.038 6.53 4.781 7.697 5.696A2.25 2.25 0 0 1 24 9.408V21.75zm-3.078-9.216a.375.375 0 0 0-.532-.09c-1.07.791-2.6 1.909-4.949 3.614-.788.575-2.353 1.958-3.441 1.942-1.088.016-2.651-1.366-3.441-1.942a778.571 778.571 0 0 1-4.95-3.614.375.375 0 0 0-.53.09l-.426.618a.375.375 0 0 0 .086.514c1.073.793 2.6 1.908 4.936 3.604.95.693 2.65 2.241 4.325 2.23 1.675.011 3.373-1.536 4.325-2.23a786.67 786.67 0 0 0 4.936-3.604.374.374 0 0 0 .086-.514l-.425-.618z"/>
  </symbol>

  <symbol id="svg-ico-feauture-like" xmlns="http://www.w3.org/2000/svg" viewBox="0 0 24 24">
    <path d="M4.88 10.5H1.13C.5 10.5 0 11 0 11.63v11.24C0 23.5.5 24 1.13 24h3.75C5.5 24 6 23.5 6 22.87V11.63c0-.62-.5-1.12-1.13-1.12zM3 22.13a1.13 1.13 0 1 1 0-2.26 1.13 1.13 0 0 1 0 2.25zM18 3.82c0 1.99-1.22 3.1-1.56 4.43h4.77A2.8 2.8 0 0 1 24 10.97a3.4 3.4 0 0 1-.91 2.31c.45 1.1.38 2.63-.44 3.73.4 1.21 0 2.7-.77 3.5.2.83.1 1.53-.29 2.1-.96 1.37-3.33 1.39-5.33 1.39h-.14c-2.26 0-4.11-.82-5.6-1.49a7.38 7.38 0 0 0-2.47-.76.56.56 0 0 1-.55-.56V11.17c0-.15.06-.3.17-.4 1.85-1.83 2.65-3.78 4.17-5.3.7-.7.95-1.75 1.2-2.76.2-.87.64-2.71 1.59-2.71C15.75 0 18 .38 18 3.82z"/>
  </symbol>

</svg>
